<?xml version="1.0" encoding="UTF-8"?>
<svg version="1.1" xmlns="http://www.w3.org/2000/svg" width="1280" height="1280">
<path d="M0 0 C422.4 0 844.8 0 1280 0 C1280 422.4 1280 844.8 1280 1280 C857.6 1280 435.2 1280 0 1280 C0 857.6 0 435.2 0 0 Z " fill="#000000" transform="translate(0,0)"/>
<path d="M0 0 C13.86 0 27.72 0 42 0 C42.33 24.09 42.66 48.18 43 73 C43.66 73 44.32 73 45 73 C45.66 71.68 46.32 70.36 47 69 C47.66 69 48.32 69 49 69 C49.13921875 68.10087891 49.13921875 68.10087891 49.28125 67.18359375 C51.19353152 61.37399934 59.72058923 57.7682811 64.84375 55.03125 C77.57670692 48.94157495 94.81013575 49.19917547 107.9375 53.77734375 C112.70868038 55.68216449 117.3849547 57.74334458 122 60 C122 60.66 122 61.32 122 62 C122.57492187 62.27457031 123.14984375 62.54914062 123.7421875 62.83203125 C135.43604963 68.88127827 143.36657024 80.23904028 147.5 92.5625 C148.0131414 94.37132342 148.51356817 96.18381159 149 98 C149.3196875 98.87527344 149.639375 99.75054688 149.96875 100.65234375 C153.25480527 111.31957618 153.43929814 121.93799392 153.4375 133 C153.43889984 133.82192841 153.44029968 134.64385681 153.44174194 135.49069214 C153.424212 147.99411831 152.53774271 159.23178813 148 171 C147.59265625 172.134375 147.1853125 173.26875 146.765625 174.4375 C143.00841918 184.19647616 137.76539494 193.8350222 130 201 C129.34 201 128.68 201 128 201 C127.67 201.99 127.34 202.98 127 204 C122.99039793 207.81866864 119.16789722 210.02884553 114 212 C113.22398438 212.34160156 112.44796875 212.68320312 111.6484375 213.03515625 C106.03153297 215.46103297 101.10763264 216.77702294 95 217 C94.02289062 217.03996094 93.04578125 217.07992187 92.0390625 217.12109375 C78.14354062 217.40707907 65.72061492 215.84685236 54 208 C53.28890093 206.68982431 52.61475494 205.35804955 52 204 C50.68422198 203.29932146 49.34916873 202.63400786 48 202 C45.8218504 199.79187586 43.96328255 197.40948313 42 195 C41.67 200.94 41.34 206.88 41 213 C27.47 213 13.94 213 0 213 C0 142.71 0 72.42 0 0 Z " fill="#FCFCFC" transform="translate(950,533)"/>
<path d="M0 0 C2.16324372 0.01605285 4.32460599 0.00006559 6.48779297 -0.01904297 C24.52042701 -0.04599013 40.69938143 4.48793409 57.29638672 11.39111328 C57.29638672 12.05111328 57.29638672 12.71111328 57.29638672 13.39111328 C58.00279297 13.63990234 58.70919922 13.88869141 59.43701172 14.14501953 C62.64218671 15.54181027 65.21816516 17.27624169 68.04638672 19.32861328 C69.01060547 20.01826172 69.97482422 20.70791016 70.96826172 21.41845703 C73.29638672 23.39111328 73.29638672 23.39111328 74.29638672 26.39111328 C74.93576172 26.70048828 75.57513672 27.00986328 76.23388672 27.32861328 C78.78273571 28.6416567 79.07884599 29.87486243 80.29638672 32.39111328 C81.28638672 32.72111328 82.27638672 33.05111328 83.29638672 33.39111328 C85.29034929 36.05195297 87.29638672 39.00353653 87.29638672 42.39111328 C87.95638672 42.39111328 88.61638672 42.39111328 89.29638672 42.39111328 C89.9236478 43.93186136 90.54807682 45.47376252 91.17138672 47.01611328 C91.51943359 47.87462891 91.86748047 48.73314453 92.22607422 49.61767578 C95.29579587 57.57206399 95.58880691 62.19257572 96.29638672 71.39111328 C81.77638672 71.39111328 67.25638672 71.39111328 52.29638672 71.39111328 C51.30638672 68.09111328 50.31638672 64.79111328 49.29638672 61.39111328 C47.81832432 58.78091276 47.81832432 58.78091276 46.10888672 56.89111328 C43.29638672 53.55169722 43.29638672 53.55169722 43.29638672 51.39111328 C42.63638672 51.39111328 41.97638672 51.39111328 41.29638672 51.39111328 C40.28294569 50.40473745 39.28600094 49.4013923 38.29638672 48.39111328 C24.33072084 37.85098809 9.28741247 36.92910957 -7.70361328 38.39111328 C-13.07113528 39.29020392 -17.75179254 41.19896621 -22.38330078 44.02783203 C-24.70361328 45.39111328 -24.70361328 45.39111328 -26.70361328 45.39111328 C-26.70361328 46.05111328 -26.70361328 46.71111328 -26.70361328 47.39111328 C-27.94111328 48.16455078 -27.94111328 48.16455078 -29.20361328 48.95361328 C-40.64520212 56.39333184 -47.86585716 70.91011194 -51.18408203 83.88330078 C-51.35552734 84.71087891 -51.52697266 85.53845703 -51.70361328 86.39111328 C-51.90599609 87.36306641 -52.10837891 88.33501953 -52.31689453 89.33642578 C-56.3129369 112.33405739 -55.78378203 141.94730904 -42.48095703 162.02001953 C-32.37062709 175.50786629 -21.31528119 182.03663418 -4.80322266 185.09082031 C7.27409784 186.81815801 19.23788106 186.07118206 29.98388672 180.20361328 C30.71671875 179.82914063 31.44955078 179.45466797 32.20458984 179.06884766 C37.06716019 176.46875368 39.99783061 173.80140496 43.29638672 169.39111328 C43.97701172 168.75173828 44.65763672 168.11236328 45.35888672 167.45361328 C48.41673037 164.1984894 50.30284274 160.37820125 52.29638672 156.39111328 C52.95638672 156.39111328 53.61638672 156.39111328 54.29638672 156.39111328 C54.37888672 155.44236328 54.46138672 154.49361328 54.54638672 153.51611328 C55.29638672 149.39111328 55.29638672 149.39111328 59.29638672 139.39111328 C42.79638672 139.39111328 26.29638672 139.39111328 9.29638672 139.39111328 C9.29638672 127.51111328 9.29638672 115.63111328 9.29638672 103.39111328 C38.66638672 103.39111328 68.03638672 103.39111328 98.29638672 103.39111328 C98.29638672 141.34111328 98.29638672 179.29111328 98.29638672 218.39111328 C88.39638672 218.39111328 78.49638672 218.39111328 68.29638672 218.39111328 C67.01175454 211.96795239 65.96459421 206.20446121 65.67138672 199.76611328 C65.63271484 199.04810547 65.59404297 198.33009766 65.55419922 197.59033203 C65.46178643 195.85759233 65.37810449 194.12439029 65.29638672 192.39111328 C61.77256985 194.93715925 61.77256985 194.93715925 59.29638672 198.39111328 C58.63638672 198.39111328 57.97638672 198.39111328 57.29638672 198.39111328 C57.06951172 198.96345703 56.84263672 199.53580078 56.60888672 200.12548828 C54.93646427 203.01240799 52.91498487 204.58581822 50.29638672 206.64111328 C49.40951172 207.34751953 48.52263672 208.05392578 47.60888672 208.78173828 C45.29638672 210.39111328 45.29638672 210.39111328 43.29638672 210.39111328 C42.96638672 211.38111328 42.63638672 212.37111328 42.29638672 213.39111328 C39.96285963 214.52530221 37.71508357 215.48145246 35.29638672 216.39111328 C34.03060518 216.9024447 32.76498042 217.41416439 31.49951172 217.92626953 C8.60149446 226.88324078 -16.41925355 227.22624276 -39.45361328 217.89111328 C-41.2153229 217.08282889 -42.96671502 216.2514207 -44.70361328 215.39111328 C-45.94111328 214.79363281 -45.94111328 214.79363281 -47.20361328 214.18408203 C-49.04907468 213.27737096 -50.87876666 212.33862979 -52.70361328 211.39111328 C-52.70361328 210.73111328 -52.70361328 210.07111328 -52.70361328 209.39111328 C-53.39583984 209.16810547 -54.08806641 208.94509766 -54.80126953 208.71533203 C-58.40056089 207.07312507 -61.17888258 204.77254374 -64.14111328 202.20361328 C-65.00978027 201.4550708 -65.00978027 201.4550708 -65.89599609 200.69140625 C-69.90309847 197.19114449 -73.55782936 193.70075291 -76.70361328 189.39111328 C-77.780625 187.92351562 -77.780625 187.92351562 -78.87939453 186.42626953 C-85.24468424 177.57917305 -90.28446532 168.91247285 -93.12548828 158.32470703 C-93.53328882 156.40313248 -93.53328882 156.40313248 -94.70361328 155.39111328 C-95.22772391 153.3186301 -95.69665775 151.23212685 -96.14111328 149.14111328 C-96.51042969 147.43181641 -96.51042969 147.43181641 -96.88720703 145.68798828 C-97.16569502 144.25691821 -97.43696948 142.82443746 -97.70361328 141.39111328 C-97.88005371 140.45831543 -98.05649414 139.52551758 -98.23828125 138.56445312 C-99.62426637 130.54898345 -100.01479251 122.68092441 -99.96435547 114.5625 C-99.95365782 112.52459734 -99.96431099 110.48758287 -99.97705078 108.44970703 C-100.00126138 85.44877649 -94.6783959 63.17994896 -82.70361328 43.39111328 C-82.30916016 42.72982422 -81.91470703 42.06853516 -81.50830078 41.38720703 C-80.45361328 39.70361328 -80.45361328 39.70361328 -78.70361328 37.39111328 C-78.04361328 37.39111328 -77.38361328 37.39111328 -76.70361328 37.39111328 C-76.44451172 36.81748047 -76.18541016 36.24384766 -75.91845703 35.65283203 C-74.60170725 33.20139112 -73.09396615 31.29876506 -71.26611328 29.20361328 C-70.66927734 28.50880859 -70.07244141 27.81400391 -69.45751953 27.09814453 C-67.70361328 25.39111328 -67.70361328 25.39111328 -64.70361328 24.39111328 C-64.70361328 23.73111328 -64.70361328 23.07111328 -64.70361328 22.39111328 C-61.24207482 19.39111328 -61.24207482 19.39111328 -58.70361328 19.39111328 C-58.70361328 18.73111328 -58.70361328 18.07111328 -58.70361328 17.39111328 C-52.95361328 14.39111328 -52.95361328 14.39111328 -50.70361328 14.39111328 C-50.70361328 13.73111328 -50.70361328 13.07111328 -50.70361328 12.39111328 C-34.05737321 4.53486071 -18.44102954 -0.16194554 0 0 Z " fill="#FCFCFC" transform="translate(252.70361328125,527.60888671875)"/>
<path d="M0 0 C22.84028775 -0.9542893 44.48475101 5.58932136 61.82568359 21.09863281 C69.53851341 29.0102469 74.45083962 38.05166454 78.82568359 48.09863281 C79.09670898 48.71947754 79.36773438 49.34032227 79.64697266 49.97998047 C83.88392462 60.40267018 84.23241971 71.15968563 84.20068359 82.28613281 C84.20047211 82.97116882 84.20026062 83.65620483 84.20004272 84.36199951 C84.16769621 94.85913348 83.41904085 104.18754285 79.82568359 114.09863281 C79.45185547 115.24847656 79.07802734 116.39832031 78.69287109 117.58300781 C73.63386998 132.12344811 62.97228271 145.87886625 49.82568359 154.09863281 C47.56396484 154.78222656 47.56396484 154.78222656 45.82568359 155.09863281 C45.82568359 155.75863281 45.82568359 156.41863281 45.82568359 157.09863281 C23.00411214 166.98447482 -5.05336471 170.68731441 -28.85400391 161.37597656 C-32.70068802 159.75603317 -36.44641932 157.97460683 -40.17431641 156.09863281 C-40.83431641 155.76863281 -41.49431641 155.43863281 -42.17431641 155.09863281 C-42.17431641 154.43863281 -42.17431641 153.77863281 -42.17431641 153.09863281 C-43.49431641 152.76863281 -44.81431641 152.43863281 -46.17431641 152.09863281 C-46.17431641 151.43863281 -46.17431641 150.77863281 -46.17431641 150.09863281 C-46.74923828 150.01097656 -47.32416016 149.92332031 -47.91650391 149.83300781 C-50.79133028 148.89794318 -52.18096192 147.49115104 -54.29931641 145.34863281 C-55.32412109 144.33542969 -55.32412109 144.33542969 -56.36962891 143.30175781 C-58.26695456 140.98554208 -59.21757038 138.91955408 -60.17431641 136.09863281 C-60.83431641 136.09863281 -61.49431641 136.09863281 -62.17431641 136.09863281 C-76.62038395 110.99730978 -81.5232207 84.56168422 -74.72216797 56.09326172 C-71.50259291 44.37136857 -65.15798366 33.23911716 -57.17431641 24.09863281 C-56.51431641 24.09863281 -55.85431641 24.09863281 -55.17431641 24.09863281 C-54.83400391 23.17050781 -54.83400391 23.17050781 -54.48681641 22.22363281 C-52.78568683 19.46942302 -51.12055487 19.2771282 -48.17431641 18.09863281 C-47.71992188 17.15890625 -47.71992188 17.15890625 -47.25634766 16.20019531 C-44.73959657 11.31206504 -38.13863903 8.88069734 -33.17431641 7.09863281 C-32.14306641 6.62425781 -31.11181641 6.14988281 -30.04931641 5.66113281 C-20.21800588 1.48706347 -10.57078325 0.47951902 0 0 Z " fill="#FCFCFC" transform="translate(458.17431640625,583.9013671875)"/>
<path d="M0 0 C2.22902708 0.02909446 4.4556756 0.02051569 6.68481445 0.00756836 C19.59091786 0.02682736 32.04545677 1.46364456 43.66333008 7.46655273 C44.57211914 7.88678711 45.4809082 8.30702148 46.41723633 8.73999023 C52.22792327 11.48245265 57.61946491 14.59393664 62.91333008 18.21655273 C63.48664063 18.60544678 64.05995117 18.99434082 64.65063477 19.39501953 C66.02861168 20.3637906 67.3521401 21.40914146 68.66333008 22.46655273 C68.66333008 23.12655273 68.66333008 23.78655273 68.66333008 24.46655273 C69.23567383 24.70116211 69.80801758 24.93577148 70.39770508 25.17749023 C81.42896294 31.45389557 88.23120468 47.91857705 91.63671875 59.59057617 C93.16178127 65.20439001 93.66333008 69.5317933 93.66333008 75.46655273 C79.14333008 75.46655273 64.62333008 75.46655273 49.66333008 75.46655273 C47.68333008 70.18655273 45.70333008 64.90655273 43.66333008 59.46655273 C37.0305101 49.13466008 28.95867375 43.35562496 16.98339844 40.54711914 C6.88860745 38.49342059 -3.56191648 38.12503745 -13.32104492 41.81030273 C-15.33666992 42.46655273 -15.33666992 42.46655273 -19.33666992 42.46655273 C-19.33666992 43.12655273 -19.33666992 43.78655273 -19.33666992 44.46655273 C-20.2415918 44.92094727 -20.2415918 44.92094727 -21.16479492 45.38452148 C-25.94942388 47.89259312 -29.14192206 49.99390573 -32.33666992 54.46655273 C-32.99666992 54.46655273 -33.65666992 54.46655273 -34.33666992 54.46655273 C-34.71178711 55.22838867 -34.71178711 55.22838867 -35.09448242 56.00561523 C-36.08646094 57.97085569 -37.10888278 59.9207198 -38.14135742 61.86499023 C-44.65580131 74.27554728 -48.98718143 86.30467105 -49.33666992 100.46655273 C-49.36736572 101.69921875 -49.36736572 101.69921875 -49.39868164 102.95678711 C-50.11343872 125.74431092 -50.11343872 125.74431092 -44.33666992 147.46655273 C-43.60620117 150.33764648 -43.60620117 150.33764648 -43.14916992 152.90405273 C-42.99061523 153.76901367 -42.83206055 154.63397461 -42.66870117 155.52514648 C-42.55913086 156.16581055 -42.44956055 156.80647461 -42.33666992 157.46655273 C-41.34666992 157.79655273 -40.35666992 158.12655273 -39.33666992 158.46655273 C-38.16870117 160.24389648 -38.16870117 160.24389648 -37.14916992 162.40405273 C-36.63290039 163.46946289 -36.63290039 163.46946289 -36.10620117 164.55639648 C-35.33666992 166.46655273 -35.33666992 166.46655273 -35.33666992 168.46655273 C-34.34666992 168.79655273 -33.35666992 169.12655273 -32.33666992 169.46655273 C-31.12235334 170.94342425 -29.90955694 172.42163675 -28.71166992 173.91186523 C-21.94762267 181.55985048 -10.13934791 184.02563842 -0.38354492 184.65795898 C10.5355507 184.86794159 18.56423501 182.89621993 28.19458008 177.70874023 C30.66333008 176.46655273 30.66333008 176.46655273 32.66333008 176.46655273 C32.66333008 175.80655273 32.66333008 175.14655273 32.66333008 174.46655273 C33.36458008 173.97155273 34.06583008 173.47655273 34.78833008 172.96655273 C38.8567333 169.4288108 41.08449544 165.15330438 43.66333008 160.46655273 C44.22020508 159.45592773 44.77708008 158.44530273 45.35083008 157.40405273 C47.07676724 153.541241 48.32541477 149.48029865 49.66333008 145.46655273 C64.18333008 145.46655273 78.70333008 145.46655273 93.66333008 145.46655273 C92.91286765 152.22071458 91.95671798 157.29279121 89.66333008 163.46655273 C89.34750977 164.43334961 89.03168945 165.40014648 88.70629883 166.39624023 C83.63366996 181.05846785 72.92779908 197.85326118 59.66333008 206.46655273 C59.00333008 206.46655273 58.34333008 206.46655273 57.66333008 206.46655273 C57.66333008 207.12655273 57.66333008 207.78655273 57.66333008 208.46655273 C29.79955207 224.1935871 1.785466 228.56760952 -29.33666992 220.46655273 C-34.10275089 219.04793077 -38.73521296 217.35353677 -43.33666992 215.46655273 C-43.33666992 214.80655273 -43.33666992 214.14655273 -43.33666992 213.46655273 C-43.99666992 213.42530273 -44.65666992 213.38405273 -45.33666992 213.34155273 C-49.78807924 212.04322502 -52.75798248 209.34532681 -56.33666992 206.46655273 C-57.19776367 205.82588867 -58.05885742 205.18522461 -58.94604492 204.52514648 C-66.40945313 198.80109189 -72.16712028 192.28255295 -77.33666992 184.46655273 C-77.33666992 183.80655273 -77.33666992 183.14655273 -77.33666992 182.46655273 C-77.99666992 182.46655273 -78.65666992 182.46655273 -79.33666992 182.46655273 C-83.13186332 175.25568527 -86.07002527 167.67602401 -88.55151367 159.91967773 C-89.12411614 158.13065111 -89.72431111 156.35038744 -90.34057617 154.57592773 C-100.24899019 124.88724809 -98.86864345 82.88369715 -85.33666992 54.46655273 C-84.67666992 54.46655273 -84.01666992 54.46655273 -83.33666992 54.46655273 C-83.33666992 53.14655273 -83.33666992 51.82655273 -83.33666992 50.46655273 C-82.67666992 50.46655273 -82.01666992 50.46655273 -81.33666992 50.46655273 C-81.23999023 49.75499023 -81.14331055 49.04342773 -81.04370117 48.31030273 C-80.22391411 45.01303764 -78.88461769 42.80303841 -77.02416992 39.96655273 C-76.42991211 39.04874023 -75.8356543 38.13092773 -75.22338867 37.18530273 C-73.36011237 34.50033316 -71.49452729 31.92250586 -69.33666992 29.46655273 C-68.67666992 29.46655273 -68.01666992 29.46655273 -67.33666992 29.46655273 C-67.07370117 28.87229492 -66.81073242 28.27803711 -66.53979492 27.66577148 C-59.83207682 15.40458548 -40.47106652 7.28305041 -27.85595703 3.39331055 C-18.44103823 0.82917557 -9.74573255 -0.13816897 0 0 Z " fill="#FCFCFC" transform="translate(661.336669921875,527.533447265625)"/>
<path d="M0 0 C0.89589844 0.25523437 1.79179688 0.51046875 2.71484375 0.7734375 C12.49259776 4.14081566 21.83496239 10.72677023 28 19 C28 19.66 28 20.32 28 21 C28.66 21 29.32 21 30 21 C34.08506333 29.72718076 35.29765034 37.84618692 35.27124023 47.44165039 C35.27646698 48.44448563 35.28169373 49.44732086 35.28707886 50.48054504 C35.2972654 52.64282238 35.30308986 54.80512387 35.30496025 56.96742439 C35.30864352 60.39396082 35.3254224 63.8202129 35.34571838 67.24668884 C35.40095356 76.98349723 35.43183459 86.72034611 35.45629883 96.45727539 C35.472196 102.42645388 35.50243135 108.39542773 35.54106331 114.36450005 C35.55268705 116.63260154 35.55864343 118.90073964 35.55874443 121.16887093 C35.55893705 124.34204565 35.57724401 127.51465717 35.59936523 130.68774414 C35.59478806 131.61731934 35.59021088 132.54689453 35.585495 133.50463867 C35.64988039 139.33107987 36.50589145 143.70446396 39 149 C39.886875 149.70125 40.77375 150.4025 41.6875 151.125 C42.8321875 152.053125 42.8321875 152.053125 44 153 C44 154.98 44 156.96 44 159 C29.15 159 14.3 159 -1 159 C-2.32 153.72 -3.64 148.44 -5 143 C-9.57250454 145.61285973 -12.5238992 147.41247953 -16.29296875 150.64453125 C-31.17971312 162.46535573 -48.74849028 164.18817636 -67.05859375 162.76171875 C-77.42872487 161.27167088 -87.59025114 156.48059079 -94 148 C-95.4375 145.0625 -95.4375 145.0625 -96 143 C-96.66 143 -97.32 143 -98 143 C-104.7087228 129.2630914 -106.4078214 112.72085809 -102 98 C-96.77533591 84.74637928 -88.64267754 77.34220676 -76.0078125 71 C-63.80923216 65.97397548 -49.52519054 64.87349296 -36.5625 62.875 C-34.85476274 62.6084248 -33.1470801 62.34149949 -31.43945312 62.07421875 C-24.631321 61.01157193 -17.82319402 59.96183523 -11 59 C-10.67 58.01 -10.34 57.02 -10 56 C-9.49082031 55.55398438 -8.98164062 55.10796875 -8.45703125 54.6484375 C-6.39839137 52.31935967 -6.63295887 50.68769423 -6.6875 47.625 C-6.69136719 46.68914063 -6.69523438 45.75328125 -6.69921875 44.7890625 C-7.01353177 41.87452354 -7.78793834 39.65591201 -9 37 C-9.66 37 -10.32 37 -11 37 C-11 36.34 -11 35.68 -11 35 C-11.71929688 34.86722656 -12.43859375 34.73445312 -13.1796875 34.59765625 C-15.89563362 34.02211642 -18.47397645 33.25654757 -21.125 32.4375 C-31.58978395 29.56812376 -42.11102916 30.53401317 -52 35 C-52 35.66 -52 36.32 -52 37 C-52.66 37 -53.32 37 -54 37 C-55.66575991 40.92643408 -56.85911916 44.89282898 -58 49 C-58.33 49.99 -58.66 50.98 -59 52 C-72.2 52 -85.4 52 -99 52 C-97.64807713 37.12884844 -94.73650149 24.03473764 -84 13 C-83.34 13 -82.68 13 -82 13 C-82 12.34 -82 11.68 -82 11 C-76.06307484 5.891483 -69.36355475 3.46519007 -62 1 C-60.8965625 0.60296875 -59.793125 0.2059375 -58.65625 -0.203125 C-40.60086721 -5.77674316 -18.12740651 -5.21815206 0 0 Z " fill="#FCFCFC" transform="translate(880,587)"/>
<path d="M0 0 C1.0725 0.45375 2.145 0.9075 3.25 1.375 C6.4076559 3.24088758 8.5373495 5.28476996 11 8 C12.22783203 9.33417969 12.22783203 9.33417969 13.48046875 10.6953125 C16.25671429 14.0443933 17.51587827 17.43357597 18.75 21.5625 C18.95753906 22.20896484 19.16507812 22.85542969 19.37890625 23.52148438 C24.20262054 38.81732679 24.32838174 58.89920471 17.3125 73.515625 C15.66182731 76.47308024 14.04966368 79.30333405 12 82 C11.34 82 10.68 82 10 82 C9.74734375 82.60585938 9.4946875 83.21171875 9.234375 83.8359375 C7.82978933 86.29840731 6.66042712 87.17687518 4.25 88.625 C3.59515625 89.02976562 2.9403125 89.43453125 2.265625 89.8515625 C-3.75646327 92.90413828 -9.11434758 93.38737764 -15.75 93.375 C-16.64090332 93.37338867 -17.53180664 93.37177734 -18.44970703 93.37011719 C-25.00388091 93.24774381 -30.28242514 92.37642795 -36 89 C-37.0725 88.443125 -38.145 87.88625 -39.25 87.3125 C-47.66706507 80.23451346 -52.17633072 68.64349841 -54 58 C-55.42468276 39.74625209 -55.12936902 21.76098755 -43 7 C-31.73611161 -4.22270416 -14.45022882 -6.72896922 0 0 Z " fill="#020202" transform="translate(478,622)"/>
<path d="M0 0 C12.76451143 13.4121822 13.59621623 29.24816267 13.3125 46.89453125 C12.89494933 58.27452671 9.5617704 67.65603895 3 77 C2.48566406 77.75023437 1.97132812 78.50046875 1.44140625 79.2734375 C0.96574219 79.84320312 0.49007813 80.41296875 0 81 C-0.66 81 -1.32 81 -2 81 C-2 81.66 -2 82.32 -2 83 C-3.64453125 84.25390625 -3.64453125 84.25390625 -5.8125 85.5625 C-6.87404297 86.21412109 -6.87404297 86.21412109 -7.95703125 86.87890625 C-15.02415235 90.75703962 -25.25357915 89.8246055 -32.8828125 87.8125 C-41.99048956 84.3173029 -49.69228334 76.68257354 -54.15625 68.0625 C-60.9547181 51.44402243 -59.67065852 29.88376139 -54.00390625 13.0390625 C-50.62087176 5.43016139 -44.84840444 -0.53702116 -37.875 -5 C-25.70147298 -9.23427027 -10.34492208 -8.24248988 0 0 Z " fill="#030303" transform="translate(1048,627)"/>
<path d="M0 0 C0.11703447 4.16642697 0.18753101 8.3324259 0.25 12.5 C0.30027344 14.25957031 0.30027344 14.25957031 0.3515625 16.0546875 C0.43015993 23.0498591 0.00457829 28.16423728 -4 34 C-4.51820313 34.76570312 -5.03640625 35.53140625 -5.5703125 36.3203125 C-13.3440584 45.34410799 -22.88975288 49.76888552 -34.6015625 51.3515625 C-41.1371726 51.73601015 -45.83996332 49.99979175 -51 46 C-55.71060786 41.67163717 -56.83531902 36.9925695 -57.13671875 30.71484375 C-56.82070361 24.4396859 -54.37256474 19.51361521 -50 15 C-49.34 15 -48.68 15 -48 15 C-48 14.34 -48 13.68 -48 13 C-39.40839283 9.58833089 -30.93979235 7.60941031 -21.87304688 5.93359375 C-15.9367778 4.77921303 -10.59539317 3.24365313 -5.06079102 0.78710938 C-3 0 -3 0 0 0 Z " fill="#050505" transform="translate(874,670)"/>
<path d="M0 0 C0.33 0.66 0.66 1.32 1 2 C1.66 2 2.32 2 3 2 C2.43742692 5.37543847 1.52058432 7.95883135 0 11 C0 11.99 0 12.98 0 14 C-0.99 14.495 -0.99 14.495 -2 15 C-2.46898963 17.8159849 -2.46898963 17.8159849 -2.625 21.0625 C-2.69976562 22.16722656 -2.77453125 23.27195312 -2.8515625 24.41015625 C-2.90054687 25.26480469 -2.94953125 26.11945312 -3 27 C-3.33 27 -3.66 27 -4 27 C-4.59066447 17.12277749 -3.13506713 9.3352222 0 0 Z " fill="#151515" transform="translate(428,640)"/>
<path d="M0 0 C0.33 0.66 0.66 1.32 1 2 C0.52691406 2.40089844 0.05382812 2.80179688 -0.43359375 3.21484375 C-5.88180185 7.89839107 -10.97357003 12.86885274 -16 18 C-16.66 17.67 -17.32 17.34 -18 17 C-16.625 15 -16.625 15 -15 13 C-14.34 13 -13.68 13 -13 13 C-12.75121094 12.41476562 -12.50242187 11.82953125 -12.24609375 11.2265625 C-10.82558144 8.68834301 -9.2779547 7.24802874 -7.0625 5.375 C-6.02802734 4.48941406 -6.02802734 4.48941406 -4.97265625 3.5859375 C-3 2 -3 2 0 0 Z " fill="#C9C9C9" transform="translate(607,544)"/>
<path d="M0 0 C0.66 0.33 1.32 0.66 2 1 C1.525625 1.598125 1.05125 2.19625 0.5625 2.8125 C-1.16465744 5.00382924 -1.16465744 5.00382924 -2 8 C-3.875 8.5625 -3.875 8.5625 -6 9 C-6.99 9.66 -7.98 10.32 -9 11 C-7.59928507 5.70841026 -4.14512755 3.22521956 0 0 Z " fill="#212121" transform="translate(441,624)"/>
<path d="M0 0 C0.66 0.33 1.32 0.66 2 1 C1.04270084 2.12588014 0.08412105 3.2506715 -0.875 4.375 C-1.40867187 5.00148438 -1.94234375 5.62796875 -2.4921875 6.2734375 C-5.15188512 9.31899799 -7.21395302 10.60514059 -11 12 C-10.34 10.68 -9.68 9.36 -9 8 C-8.34 8 -7.68 8 -7 8 C-6.67 7.01 -6.34 6.02 -6 5 C-5.34 5 -4.68 5 -4 5 C-3.67 4.01 -3.34 3.02 -3 2 C-2.01 1.34 -1.02 0.68 0 0 Z " fill="#303030" transform="translate(636,574)"/>
<path d="M0 0 C0.66 0 1.32 0 2 0 C1.34 2.31 0.68 4.62 0 7 C-0.66 7 -1.32 7 -2 7 C-3.6446674 9.46326712 -3.6446674 9.46326712 -5 12 C-5.75 10.375 -5.75 10.375 -6 8 C-4.1875 4.75 -4.1875 4.75 -2 2 C-1.34 2 -0.68 2 0 2 C0 1.34 0 0.68 0 0 Z " fill="#323232" transform="translate(828,622)"/>
<path d="M0 0 C0.66 0.33 1.32 0.66 2 1 C-1.96 4.96 -5.92 8.92 -10 13 C-10 9.06830895 -8.60580385 7.83572772 -6 5 C-5.34 5 -4.68 5 -4 5 C-4 4.34 -4 3.68 -4 3 C-2 1.375 -2 1.375 0 0 Z " fill="#BEBEBE" transform="translate(802,595)"/>
<path d="M0 0 C0.99 0.99 1.98 1.98 3 3 C3 6.4375 3 6.4375 2 10 C0.35 11.32 -1.3 12.64 -3 14 C-2.01 9.38 -1.02 4.76 0 0 Z " fill="#353535" transform="translate(1101,689)"/>
<path d="M0 0 C0.66 0.33 1.32 0.66 2 1 C0.86525052 4.40424844 0.03188696 5.21653709 -3 7 C-3.99 6.67 -4.98 6.34 -6 6 C-5.67 5.34 -5.34 4.68 -5 4 C-5.66 3.67 -6.32 3.34 -7 3 C-4.69631264 1.93347808 -2.35981813 0.93578995 0 0 Z " fill="#272727" transform="translate(833,680)"/>
<path d="M0 0 C0 0.99 0 1.98 0 3 C-4.55384615 3.36923077 -4.55384615 3.36923077 -6.8125 1.5 C-7.4003125 0.7575 -7.4003125 0.7575 -8 0 C-4.94736336 -0.98120464 -3.05263664 -0.98120464 0 0 Z " fill="#2E2E2E" transform="translate(856,677)"/>
<path d="M0 0 C0 3.93631364 -1.42857129 5.12605026 -4 8 C-4.99 8.495 -4.99 8.495 -6 9 C-6.33 8.01 -6.66 7.02 -7 6 C-4.69 4.02 -2.38 2.04 0 0 Z " fill="#222222" transform="translate(729,726)"/>
<path d="M0 0 C2.31 0.33 4.62 0.66 7 1 C6.01 2.32 5.02 3.64 4 5 C1 3 1 3 0 0 Z " fill="#090909" transform="translate(643,705)"/>
<path d="M0 0 C0.33 0.66 0.66 1.32 1 2 C1.66 2 2.32 2 3 2 C2.67 3.65 2.34 5.3 2 7 C1.01 6.67 0.02 6.34 -1 6 C-0.67 4.02 -0.34 2.04 0 0 Z " fill="#1D1D1D" transform="translate(428,640)"/>
</svg>
